<svg width="25" height="25" viewBox="0 0 25 25" fill="none" xmlns="http://www.w3.org/2000/svg">
<path d="M18.9909 9.94977V9.24477C18.9909 5.37577 15.9669 2.23977 12.2409 2.23977C8.51491 2.23977 5.49091 5.37577 5.49091 9.24477V9.94977C5.49211 10.7913 5.25195 11.6156 4.79891 12.3248L3.69091 14.0498C2.67991 15.6248 3.45191 17.7658 5.21091 18.2638C9.80719 19.5654 14.6746 19.5654 19.2709 18.2638C21.0299 17.7658 21.8019 15.6248 20.7909 14.0508L19.6829 12.3258C19.2295 11.6167 18.989 10.7924 18.9899 9.95077L18.9909 9.94977Z" stroke="black" stroke-width="1.5"/>
<path d="M7.74097 19.2398C8.39597 20.9878 10.163 22.2398 12.241 22.2398C14.319 22.2398 16.086 20.9878 16.741 19.2398" stroke="black" stroke-width="1.5" stroke-linecap="round"/>
</svg>
