<svg width="25" height="25" viewBox="0 0 25 25" fill="none" xmlns="http://www.w3.org/2000/svg">
<path d="M2.54852 12.8238C2.54852 9.05279 2.54852 7.16679 3.72052 5.99579C4.89252 4.82479 6.77752 4.82379 10.5485 4.82379H14.5485C18.3195 4.82379 20.2055 4.82379 21.3765 5.99579C22.5475 7.16779 22.5485 9.05279 22.5485 12.8238V14.8238C22.5485 18.5948 22.5485 20.4808 21.3765 21.6518C20.2045 22.8228 18.3195 22.8238 14.5485 22.8238H10.5485C6.77752 22.8238 4.89152 22.8238 3.72052 21.6518C2.54952 20.4798 2.54852 18.5948 2.54852 14.8238V12.8238Z" stroke="black" stroke-width="1.5"/>
<path d="M7.54852 4.82379V3.32379M17.5485 4.82379V3.32379M3.04852 9.82379H22.0485" stroke="black" stroke-width="1.5" stroke-linecap="round"/>
<path d="M18.5485 17.8238C18.5485 18.089 18.4432 18.3434 18.2556 18.5309C18.0681 18.7184 17.8137 18.8238 17.5485 18.8238C17.2833 18.8238 17.029 18.7184 16.8414 18.5309C16.6539 18.3434 16.5485 18.089 16.5485 17.8238C16.5485 17.5586 16.6539 17.3042 16.8414 17.1167C17.029 16.9291 17.2833 16.8238 17.5485 16.8238C17.8137 16.8238 18.0681 16.9291 18.2556 17.1167C18.4432 17.3042 18.5485 17.5586 18.5485 17.8238ZM18.5485 13.8238C18.5485 14.089 18.4432 14.3434 18.2556 14.5309C18.0681 14.7184 17.8137 14.8238 17.5485 14.8238C17.2833 14.8238 17.029 14.7184 16.8414 14.5309C16.6539 14.3434 16.5485 14.089 16.5485 13.8238C16.5485 13.5586 16.6539 13.3042 16.8414 13.1167C17.029 12.9291 17.2833 12.8238 17.5485 12.8238C17.8137 12.8238 18.0681 12.9291 18.2556 13.1167C18.4432 13.3042 18.5485 13.5586 18.5485 13.8238ZM13.5485 17.8238C13.5485 18.089 13.4432 18.3434 13.2556 18.5309C13.0681 18.7184 12.8137 18.8238 12.5485 18.8238C12.2833 18.8238 12.029 18.7184 11.8414 18.5309C11.6539 18.3434 11.5485 18.089 11.5485 17.8238C11.5485 17.5586 11.6539 17.3042 11.8414 17.1167C12.029 16.9291 12.2833 16.8238 12.5485 16.8238C12.8137 16.8238 13.0681 16.9291 13.2556 17.1167C13.4432 17.3042 13.5485 17.5586 13.5485 17.8238ZM13.5485 13.8238C13.5485 14.089 13.4432 14.3434 13.2556 14.5309C13.0681 14.7184 12.8137 14.8238 12.5485 14.8238C12.2833 14.8238 12.029 14.7184 11.8414 14.5309C11.6539 14.3434 11.5485 14.089 11.5485 13.8238C11.5485 13.5586 11.6539 13.3042 11.8414 13.1167C12.029 12.9291 12.2833 12.8238 12.5485 12.8238C12.8137 12.8238 13.0681 12.9291 13.2556 13.1167C13.4432 13.3042 13.5485 13.5586 13.5485 13.8238ZM8.54852 17.8238C8.54852 18.089 8.44317 18.3434 8.25563 18.5309C8.06809 18.7184 7.81374 18.8238 7.54852 18.8238C7.28331 18.8238 7.02895 18.7184 6.84142 18.5309C6.65388 18.3434 6.54852 18.089 6.54852 17.8238C6.54852 17.5586 6.65388 17.3042 6.84142 17.1167C7.02895 16.9291 7.28331 16.8238 7.54852 16.8238C7.81374 16.8238 8.06809 16.9291 8.25563 17.1167C8.44317 17.3042 8.54852 17.5586 8.54852 17.8238ZM8.54852 13.8238C8.54852 14.089 8.44317 14.3434 8.25563 14.5309C8.06809 14.7184 7.81374 14.8238 7.54852 14.8238C7.28331 14.8238 7.02895 14.7184 6.84142 14.5309C6.65388 14.3434 6.54852 14.089 6.54852 13.8238C6.54852 13.5586 6.65388 13.3042 6.84142 13.1167C7.02895 12.9291 7.28331 12.8238 7.54852 12.8238C7.81374 12.8238 8.06809 12.9291 8.25563 13.1167C8.44317 13.3042 8.54852 13.5586 8.54852 13.8238Z" fill="black"/>
</svg>
