<svg width="8" height="6" viewBox="0 0 8 6" fill="none" xmlns="http://www.w3.org/2000/svg">
<path d="M0.74934 0.984823C0.550589 0.984823 0.359966 1.06371 0.21934 1.20416C0.0788899 1.34479 0 1.53541 0 1.73416C0 1.93291 0.0788899 2.12354 0.21934 2.26416L3.21934 5.26416C3.35997 5.40461 3.55059 5.4835 3.74934 5.4835C3.94809 5.4835 4.13871 5.40461 4.27934 5.26416L7.27934 2.26416C7.35303 2.1955 7.41213 2.1127 7.45312 2.0207C7.49411 1.9287 7.51616 1.82939 7.51793 1.72868C7.51971 1.62798 7.50118 1.52795 7.46346 1.43456C7.42574 1.34118 7.3696 1.25634 7.29838 1.18512C7.22716 1.11391 7.14233 1.05776 7.04894 1.02004C6.95555 0.982319 6.85552 0.963794 6.75482 0.965571C6.65412 0.967348 6.5548 0.98939 6.4628 1.03038C6.3708 1.07137 6.288 1.13048 6.21934 1.20416L3.74934 3.67416L1.27934 1.20416C1.13871 1.06371 0.948091 0.984823 0.74934 0.984823Z" fill="black"/>
</svg>
