<svg width="25" height="25" viewBox="0 0 25 25" fill="none" xmlns="http://www.w3.org/2000/svg">
<path opacity="0.5" d="M12.2991 6.02722L14.2991 8.02722" stroke="black" stroke-width="1.5" stroke-linecap="round"/>
<path d="M12.2991 6.02623L11.7591 6.54623C11.829 6.61882 11.9129 6.67655 12.0057 6.71599C12.0985 6.75543 12.1983 6.77575 12.2991 6.77575C12.3999 6.77575 12.4997 6.75543 12.5924 6.71599C12.6852 6.67655 12.7691 6.61882 12.8391 6.54623L12.2991 6.02623ZM9.72507 18.8482C8.20907 17.6532 6.55207 16.4862 5.23707 15.0062C3.94907 13.5542 3.04907 11.8612 3.04907 9.66323H1.54907C1.54907 12.3292 2.65907 14.3632 4.11607 16.0022C5.54607 17.6122 7.37007 18.9022 8.79607 20.0262L9.72507 18.8482ZM3.04907 9.66323C3.04907 7.51323 4.26407 5.70923 5.92307 4.95023C7.53507 4.21323 9.70107 4.40823 11.7591 6.54623L12.8391 5.50723C10.3991 2.97023 7.56307 2.55123 5.29907 3.58623C3.08507 4.59923 1.54907 6.95123 1.54907 9.66323H3.04907ZM8.79607 20.0262C9.30907 20.4302 9.85907 20.8602 10.4161 21.1862C10.9731 21.5122 11.6091 21.7762 12.2991 21.7762V20.2762C11.9891 20.2762 11.6251 20.1562 11.1731 19.8912C10.7201 19.6272 10.2511 19.2632 9.72507 18.8482L8.79607 20.0262ZM15.8021 20.0262C17.2281 18.9012 19.0521 17.6132 20.4821 16.0022C21.9391 14.3622 23.0491 12.3292 23.0491 9.66323H21.5491C21.5491 11.8612 20.6491 13.5542 19.3611 15.0062C18.0461 16.4862 16.3891 17.6532 14.8731 18.8482L15.8021 20.0262ZM23.0491 9.66323C23.0491 6.95123 21.5141 4.59923 19.2991 3.58623C17.0351 2.55123 14.2011 2.97023 11.7591 5.50623L12.8391 6.54623C14.8971 4.40923 17.0631 4.21323 18.6751 4.95023C20.3341 5.70923 21.5491 7.51223 21.5491 9.66323H23.0491ZM14.8731 18.8482C14.3471 19.2632 13.8781 19.6272 13.4251 19.8912C12.9721 20.1552 12.6091 20.2762 12.2991 20.2762V21.7762C12.9891 21.7762 13.6251 21.5112 14.1821 21.1862C14.7401 20.8602 15.2891 20.4302 15.8021 20.0262L14.8731 18.8482Z" fill="black"/>
</svg>
