<svg width="21" height="20" viewBox="0 0 21 20" fill="none" xmlns="http://www.w3.org/2000/svg">
<path d="M5.5 8.33331H8.83333" stroke="black" stroke-width="1.5" stroke-linecap="round" stroke-linejoin="round"/>
<path d="M17.8608 9.16666H15.6925C14.205 9.16666 13 10.2858 13 11.6667C13 13.0475 14.2058 14.1667 15.6917 14.1667H17.8608C17.9308 14.1667 17.965 14.1667 17.9942 14.165C18.4442 14.1375 18.8025 13.805 18.8317 13.3875C18.8333 13.3608 18.8333 13.3283 18.8333 13.2642V10.0692C18.8333 10.005 18.8333 9.97249 18.8317 9.94582C18.8017 9.52832 18.4442 9.19582 17.9942 9.16832C17.965 9.16666 17.9308 9.16666 17.8608 9.16666Z" stroke="black" stroke-width="1.5"/>
<path d="M17.9708 9.16667C17.9058 7.60667 17.6975 6.65 17.0233 5.97667C16.0475 5 14.4758 5 11.3333 5H8.83336C5.69086 5 4.11919 5 3.14336 5.97667C2.16753 6.95333 2.16669 8.52417 2.16669 11.6667C2.16669 14.8092 2.16669 16.3808 3.14336 17.3567C4.12003 18.3325 5.69086 18.3333 8.83336 18.3333H11.3333C14.4758 18.3333 16.0475 18.3333 17.0233 17.3567C17.6975 16.6833 17.9067 15.7267 17.9708 14.1667" stroke="black" stroke-width="1.5"/>
<path d="M5.5 4.99999L8.6125 2.93582C9.05033 2.6514 9.56123 2.50003 10.0833 2.50003C10.6054 2.50003 11.1163 2.6514 11.5542 2.93582L14.6667 4.99999" stroke="black" stroke-width="1.5" stroke-linecap="round"/>
<path d="M15.4925 11.6667H15.5008" stroke="black" stroke-width="2" stroke-linecap="round" stroke-linejoin="round"/>
</svg>
