<svg width="97" height="25" viewBox="0 0 97 25" fill="none" xmlns="http://www.w3.org/2000/svg">
<path d="M65.7007 23.7018V0.7659H69.6698V15.7939L68.1548 15.3394L75.9112 7.21946H80.8499L74.7599 13.8548L80.9711 23.7018H76.4263L71.0332 15.1576L73.3965 14.6729L68.4275 20.0054L69.6698 17.5815V23.7018H65.7007Z" fill="url(#paint0_linear_0_5)"/>
<path d="M62.9111 19.4297H63.5777V23.7018H62.5173C58.2149 23.7018 56.0031 21.3385 56.0031 17.3997C56.0031 16.0969 56.2758 14.7335 56.9121 13.37L53.1248 12.8853L51.2912 22.6551C51.1773 23.262 50.6473 23.7018 50.0298 23.7018H46.7318L49.0951 11.7945C48.2467 11.1885 47.7316 10.1584 47.7316 9.06766C47.7316 7.43154 48.883 6.3105 50.61 6.3105C52.2461 6.3105 53.3974 7.34065 53.5489 8.70407L63.0929 9.79482V10.3703C63.0929 10.6855 62.9921 10.9921 62.8122 11.251C61.328 13.3878 60.5479 15.2556 60.5479 16.8543C60.5479 18.5208 61.3659 19.4297 62.9111 19.4297Z" fill="url(#paint1_linear_0_5)"/>
<path d="M37.4894 24.193C35.8735 24.193 34.399 23.8193 33.0659 23.0719C31.7529 22.3246 30.7026 21.3045 29.9148 20.0118C29.1473 18.7191 28.7635 17.2446 28.7635 15.5882C28.7635 13.9319 29.1473 12.4574 29.9148 11.1647C30.7026 9.87195 31.7529 8.85191 33.0659 8.10455C34.3788 7.35719 35.8533 6.98351 37.4894 6.98351C39.1054 6.98351 40.5698 7.35719 41.8827 8.10455C43.1956 8.85191 44.2359 9.87195 45.0034 11.1647C45.7912 12.4372 46.1851 13.9117 46.1851 15.5882C46.1851 17.2446 45.7912 18.7191 45.0034 20.0118C44.2157 21.3045 43.1653 22.3246 41.8524 23.0719C40.5395 23.8193 39.0852 24.193 37.4894 24.193ZM37.4894 20.5572C38.3782 20.5572 39.1558 20.3451 39.8224 19.9209C40.5092 19.4967 41.0444 18.911 41.4282 18.1636C41.8322 17.3961 42.0342 16.5376 42.0342 15.5882C42.0342 14.6187 41.8322 13.7703 41.4282 13.0432C41.0444 12.2958 40.5092 11.7101 39.8224 11.2859C39.1558 10.8415 38.3782 10.6193 37.4894 10.6193C36.5805 10.6193 35.7826 10.8415 35.0959 11.2859C34.4091 11.7101 33.8637 12.2958 33.4598 13.0432C33.076 13.7703 32.8841 14.6187 32.8841 15.5882C32.8841 16.5376 33.076 17.3961 33.4598 18.1636C33.8637 18.911 34.4091 19.4967 35.0959 19.9209C35.7826 20.3451 36.5805 20.5572 37.4894 20.5572Z" fill="url(#paint2_linear_0_5)"/>
<path d="M6.05967 24.193L0 1.6207H3.25137C3.93989 1.6207 4.53965 2.09024 4.70491 2.75862L9.18041 20.8602H8.02907L12.998 6.73019H16.0555C16.7829 6.73019 17.4308 7.19009 17.6708 7.87679L22.2087 20.8602H21.0574L25.5329 2.75862C25.6981 2.09024 26.2979 1.6207 26.9864 1.6207H30.2378L24.1781 24.193H19.4516L14.4523 10.5781H15.7855L10.7862 24.193H6.05967Z" fill="url(#paint3_linear_0_5)"/>
<path d="M91.3605 19.8248C93.4581 19.8248 95.524 19.062 96.8589 17.7589V22.1449C95.4287 23.2255 93.2356 23.8294 91.0426 23.8294C88.786 23.8294 86.7202 23.1937 85.131 21.986L83.3512 23.7023H82.4931V19.969C82.4931 19.3286 82.7541 18.7159 83.216 18.2722L90.5659 11.2116H84.5453C83.4821 11.2116 82.6202 10.3497 82.6202 9.28654V7.23879H96.2868V11.2116L88.0868 19.1256C89.0721 19.5705 90.1845 19.8248 91.3605 19.8248Z" fill="url(#paint4_linear_0_5)"/>
<defs>
<linearGradient id="paint0_linear_0_5" x1="96.8589" y1="7.67781" x2="65.1865" y2="54.2001" gradientUnits="userSpaceOnUse">
<stop stop-color="#EE7696"/>
<stop offset="1" stop-color="#8A05BE"/>
</linearGradient>
<linearGradient id="paint1_linear_0_5" x1="96.8589" y1="7.67781" x2="65.1865" y2="54.2001" gradientUnits="userSpaceOnUse">
<stop stop-color="#EE7696"/>
<stop offset="1" stop-color="#8A05BE"/>
</linearGradient>
<linearGradient id="paint2_linear_0_5" x1="96.8589" y1="7.67781" x2="65.1865" y2="54.2001" gradientUnits="userSpaceOnUse">
<stop stop-color="#EE7696"/>
<stop offset="1" stop-color="#8A05BE"/>
</linearGradient>
<linearGradient id="paint3_linear_0_5" x1="96.8589" y1="7.67781" x2="65.1865" y2="54.2001" gradientUnits="userSpaceOnUse">
<stop stop-color="#EE7696"/>
<stop offset="1" stop-color="#8A05BE"/>
</linearGradient>
<linearGradient id="paint4_linear_0_5" x1="96.8589" y1="7.67781" x2="65.1865" y2="54.2001" gradientUnits="userSpaceOnUse">
<stop stop-color="#EE7696"/>
<stop offset="1" stop-color="#8A05BE"/>
</linearGradient>
</defs>
</svg>
