<svg width="66" height="20" viewBox="0 0 66 20" fill="none" xmlns="http://www.w3.org/2000/svg">
<path d="M35.8048 15.95V4.80704H38.9977V15.95H35.8048Z" fill="white"/>
<path d="M35.9853 3.45083C36.3505 3.79163 36.8307 3.96203 37.4259 3.96203C38.0076 3.96203 38.481 3.79163 38.8463 3.45083C39.2115 3.11003 39.3941 2.65782 39.3941 2.09419C39.3941 1.51745 39.2047 1.05869 38.826 0.717889C38.4472 0.377091 37.9873 0.206692 37.4462 0.206692C36.8781 0.206692 36.4046 0.383645 36.0259 0.737551C35.6471 1.09146 35.4577 1.55022 35.4577 2.11385C35.4577 2.66437 35.6336 3.11003 35.9853 3.45083Z" fill="white"/>
<path fill-rule="evenodd" clip-rule="evenodd" d="M52.0875 5.92515C50.3714 5.93987 48.4687 6.21161 46.1407 7.07703L44.6003 2.9511C48.247 1.59545 51.1594 1.40893 53.7491 1.57044C54.7926 1.63551 55.7956 1.75879 56.7101 1.87121C56.8908 1.89342 57.068 1.9152 57.2414 1.93602C58.3227 2.06591 59.2996 2.16508 60.2952 2.16508L60.9426 6.47113C58.9716 7.07477 56.0098 8.38045 53.3288 10.4642C53.2813 10.5011 53.2339 10.5383 53.1866 10.5757C56.5652 9.80345 60.679 10.1232 65.7206 12.3205L63.9544 16.3554C58.7414 14.0834 55.2298 14.349 52.7837 15.291C50.2317 16.2739 48.497 18.1052 46.9841 19.7242L43.2317 17.6826C44.4272 12.9705 47.4429 9.45789 50.6173 6.99065C51.1021 6.61381 51.5938 6.25881 52.0875 5.92515Z" fill="white"/>
<path d="M23.0521 19.7119V4.78473H25.8615V6.86573L25.6006 6.26545C25.9618 5.71852 26.4501 5.29831 27.0655 5.00484C27.6943 4.69803 28.41 4.54462 29.2127 4.54462C30.2562 4.54462 31.1993 4.79807 32.0422 5.30498C32.885 5.81189 33.5539 6.49889 34.0489 7.36598C34.5439 8.21972 34.7914 9.18018 34.7914 10.2474C34.7914 11.3012 34.5439 12.2617 34.0489 13.1287C33.5673 13.9958 32.905 14.6828 32.0622 15.1897C31.2194 15.6967 30.2629 15.9501 29.1926 15.9501C28.4434 15.9501 27.7478 15.8167 27.1056 15.5499C26.4769 15.2698 25.9685 14.8629 25.5805 14.3293L26.0621 13.709V19.7119H23.0521ZM28.8314 13.2488C29.3933 13.2488 29.8883 13.1221 30.3164 12.8686C30.7445 12.6152 31.0789 12.2617 31.3197 11.8081C31.5605 11.3546 31.6809 10.8343 31.6809 10.2474C31.6809 9.66041 31.5605 9.14683 31.3197 8.70662C31.0789 8.25307 30.7445 7.89957 30.3164 7.64611C29.8883 7.37932 29.3933 7.24592 28.8314 7.24592C28.2963 7.24592 27.8147 7.37265 27.3866 7.6261C26.9719 7.87956 26.6441 8.23306 26.4033 8.68661C26.1758 9.14016 26.0621 9.66041 26.0621 10.2474C26.0621 10.8343 26.1758 11.3546 26.4033 11.8081C26.6441 12.2617 26.9719 12.6152 27.3866 12.8686C27.8147 13.1221 28.2963 13.2488 28.8314 13.2488Z" fill="white"/>
<path d="M14.9724 15.9501C14.0894 15.9501 13.3335 15.7634 12.7048 15.3898C12.0894 15.003 11.6211 14.4694 11.3001 13.7891C10.979 13.1087 10.8185 12.315 10.8185 11.4079V4.78474H13.8285V11.1678C13.8285 11.5813 13.9088 11.9482 14.0693 12.2683C14.2433 12.5752 14.4841 12.8153 14.7918 12.9887C15.0995 13.1621 15.4473 13.2488 15.8352 13.2488C16.2366 13.2488 16.5844 13.1621 16.8787 12.9887C17.1864 12.8153 17.4206 12.5752 17.5811 12.2683C17.755 11.9482 17.842 11.5813 17.842 11.1678V4.78474H20.852V15.71H18.0426V13.549L18.2032 14.0292C17.949 14.6828 17.5343 15.1697 16.959 15.4899C16.3971 15.7967 15.7349 15.9501 14.9724 15.9501Z" fill="white"/>
<path d="M0.279419 15.71V13.3088L6.58051 6.38551L7.02199 7.38599H0.540292V4.78474H9.69093V7.18589L3.55037 14.1292L3.10889 13.1087H9.711V15.71H0.279419Z" fill="white"/>
</svg>
